    <svg xmlns="http://www.w3.org/2000/svg" xmlns:xlink="http://www.w3.org/1999/xlink"
                preserveAspectRatio="none" x="0px" y="0px" viewBox="0 0 10 28" class="wb-parenthesized-text__start">
                <defs>
                    <g id="Layer0_0_FILL">
                        <path fill="currentColor" stroke="none"
                            d=" M 0 0.5 Q 1.15 2.3 2.5 5.45 3.8 8.4 4.1 10.15 L 2.05 10.15 4.15 12.3 3.35 12.3 3.35 13.1 1.25 11 1.25 13.1 0.25 14.1 1.25 15.1 1.25 17.2 3.35 15.1 3.35 15.85 4.1 15.85 2.05 18 4.1 18 2.5 22.75 Q 1.15 25.85 0 27.65 L 0 28.15 Q 3.85 23.95 5.6 18 L 8.2 18 6.2 15.85 6.85 15.85 6.85 15.1 9 17.2 9 15.1 10 14.1 9 13.1 9 11 6.85 13.15 6.85 12.3 6.1 12.3 8.2 10.15 5.6 10.15 Q 3.9 4.2 0 0 L 0 0.5 M 7 14.1 L 6.45 14.6 6.45 15.45 5.7 15.45 5.15 16 4.6 15.45 3.8 15.45 3.8 14.6 3.25 14.1 3.8 13.55 3.8 12.75 4.6 12.75 5.15 12.2 5.7 12.75 6.45 12.75 6.45 13.55 7 14.1 Z">
                        </path>
                    </g>
                </defs>
                <g transform="matrix( 1, 0, 0, 1, 0,0) ">
                    <use xlink:href="#Layer0_0_FILL"></use>
                </g>
            </svg>